<svg xmlns="http://www.w3.org/2000/svg" viewBox="0 0 44 32" aria-label="Google Pay" role="img" focusable="false" style="display: block; height: 33px; width: 33px;"><g fill="none" fill-rule="evenodd"><path fill="#3C4043" fill-rule="nonzero" d="M21.2 15.58v4.54h-1.42V8.9h3.77a3.35 3.35 0 0 1 2.44.97 3.27 3.27 0 0 1 .16 4.59l-.16.16c-.66.63-1.48.96-2.44.96H21.2zm0-5.3v3.92h2.39a1.84 1.84 0 0 0 1.4-.58 2 2 0 0 0-.04-2.79 1.92 1.92 0 0 0-1.36-.56H21.2zm9.09 1.91c1.05 0 1.88.29 2.49.85.6.57.9 1.35.9 2.35v4.73h-1.35v-1.06h-.07a2.7 2.7 0 0 1-2.34 1.32c-.83 0-1.54-.25-2.1-.76a2.39 2.39 0 0 1-.83-1.88c0-.8.3-1.42.89-1.9a3.7 3.7 0 0 1 2.37-.7c.85 0 1.54.16 2.09.46v-.33c0-.49-.22-.96-.59-1.28a2.05 2.05 0 0 0-1.37-.53c-.79 0-1.42.34-1.88 1.02l-1.25-.8c.67-.99 1.69-1.49 3.04-1.49zm-1.84 5.58c0 .38.18.73.47.94.32.25.7.39 1.1.38.6 0 1.18-.25 1.6-.68.47-.44.7-.97.7-1.58a2.81 2.81 0 0 0-1.85-.53c-.57 0-1.06.14-1.44.42-.39.28-.58.63-.58 1.05z"/><path fill="#3C4043" d="M41.49 12.44 36.74 23.5h-1.47l1.77-3.87-3.12-7.19h1.55l2.25 5.52h.03l2.2-5.52z"/><path fill="#4285F4" d="M15.46 14.59c0-.44-.04-.88-.1-1.3h-6v2.47h3.43a2.99 2.99 0 0 1-1.27 1.97v1.6h2.05a6.33 6.33 0 0 0 1.89-4.74z"/><path fill="#34A853" d="M9.36 20.9c1.71 0 3.16-.58 4.2-1.56l-2.04-1.62a3.81 3.81 0 0 1-5.73-2.04H3.7v1.67a6.34 6.34 0 0 0 5.67 3.54z"/><path fill="#FBBC04" d="M5.8 15.68a3.94 3.94 0 0 1 0-2.47v-1.66H3.67a6.47 6.47 0 0 0 0 5.79l2.11-1.66z"/><path fill="#EA4335" d="M9.36 10.55a3.4 3.4 0 0 1 2.43.97l1.82-1.84A6.09 6.09 0 0 0 9.36 8c-2.4 0-4.6 1.38-5.68 3.56l2.11 1.66a3.8 3.8 0 0 1 3.57-2.67z"/><path fill="#B0B0B0" d="M2.04 1C1.47 1 1 1.47 1 2.05v27.9c0 .58.47 1.05 1.04 1.05h39.92c.57 0 1.04-.47 1.04-1.05V2.05C43 1.47 42.53 1 41.96 1H2.04zM0 2.05C0 .92.9 0 2.04 0h39.92C43.1 0 44 .92 44 2.05v27.9c0 1.13-.9 2.05-2.04 2.05H2.04A2.04 2.04 0 0 1 0 29.95V2.05z"/></g></svg>