
<svg xmlns="http://www.w3.org/2000/svg" width="8rem" height="8rem" viewBox="0 0 512 512" style="cursor: none;">
  <circle cx="256" cy="256" r="220" fill="rgba(255, 56, 92, 0.2)" />
  <circle cx="256" cy="256" r="90" fill="#ff385c" />
  <g transform="scale(0.2) translate(1025, 1020)">
    <path d="M437.52734,207.40039,277.51367,61.92871a31.87314,31.87314,0,0,0-43.05274.00293L74.47461,207.39941A32.06216,32.06216,0,0,0,64,231.07715V369.18945a32.9455,32.9455,0,0,0,8.02132,21.92383A31.83458,31.83458,0,0,0,96.00488,447.998H191.92969a16,16,0,0,0,16-16V335.9834a16,16,0,0,1,16-16h64a16,16,0,0,1,16,16V431.998a16,16,0,0,0,16,16h95.91455a30.8125,30.8125,0,0,0,15.06811-3.71167A32.1683,32.1683,0,0,0,448,415.998v-184.92A32.07134,32.07134,0,0,0,437.52734,207.40039Z" fill="#ffffff"></path>
  </g>
</svg>
