<?xml version="1.0"?>
<svg width="32" height="32" xmlns="http://www.w3.org/2000/svg" xmlns:svg="http://www.w3.org/2000/svg" display="block" stroke-width="2">
 <g class="layer">
  <title>Layer 1</title>
  <g fill="none" id="svg_1">
   <path d="m16.67,24.94c-2.35,3.15 -4.7,4.73 -7.07,4.73c-3.62,0 -5.17,-2.38 -5.53,-4.21c-0.32,-1.63 0.5,-3.82 0.8,-4.54l1.75,-3.85a205.3,205.3 0 0 1 5.08,-10.47l0.9,-1.6l0.23,-0.41c0.4,-0.68 1.5,-2.25 3.84,-2.25a4.16,4.16 0 0 1 3.78,2.16l0.29,0.5l0.76,1.37l0.4,0.73c1.22,2.3 2.75,5.52 4.02,8.25l2.51,5.5c0.27,0.61 1.16,2.92 0.83,4.62c-0.36,1.83 -1.9,4.2 -5.53,4.2c-2.42,0 -4.77,-1.57 -7.06,-4.72l0,-0.01z" id="svg_2" stroke="#545454"/>
   <path d="m16.67,24.94c2.1,-2.8 3.34,-5.09 3.7,-6.84c0.52,-2.63 -1.06,-4.83 -3.7,-4.83s-4.23,2.2 -3.7,4.83c0.35,1.75 1.59,4.03 3.7,6.84z" id="svg_3" stroke="#545454"/>
  </g>
 </g>
</svg>